REM DIRINDEX 1\2,1\3,1\4,1\5\6,1\5\7,1\8
REM DIRNAME folder01,folder02,folder03,folder04,folder05,folder06,folder07,folder08
TITLE ""
FILE "160 Åy160ÅzUnit9 (1813 drag on_1824 pass for Å`).mp3" MP3
  TRACK 01 AUDIO
    TITLE "0:"
    INDEX 01 00:00:00
  TRACK 02 AUDIO
    TITLE "2:cjc115_6244"
    INDEX 01 00:00:07
  TRACK 03 AUDIO
    TITLE "0:"
    INDEX 01 00:01:44
  TRACK 04 AUDIO
    TITLE "3:cjc115_6245"
    INDEX 01 00:01:52
  TRACK 05 AUDIO
    TITLE "0:"
    INDEX 01 00:03:39
  TRACK 06 AUDIO
    TITLE "4:cjc115_6246"
    INDEX 01 00:03:55
  TRACK 07 AUDIO
    TITLE "0:"
    INDEX 01 00:07:31
  TRACK 08 AUDIO
    TITLE "2:cjc115_6247"
    INDEX 01 00:08:42
  TRACK 09 AUDIO
    TITLE "0:"
    INDEX 01 00:10:04
  TRACK 10 AUDIO
    TITLE "3:cjc115_6248"
    INDEX 01 00:10:18
  TRACK 11 AUDIO
    TITLE "0:"
    INDEX 01 00:12:34
  TRACK 12 AUDIO
    TITLE "4:cjc115_6249"
    INDEX 01 00:12:44
  TRACK 13 AUDIO
    TITLE "0:"
    INDEX 01 00:17:25
  TRACK 14 AUDIO
    TITLE "2:cjc115_6250"
    INDEX 01 00:18:35
  TRACK 15 AUDIO
    TITLE "0:"
    INDEX 01 00:20:02
  TRACK 16 AUDIO
    TITLE "3:cjc115_6251"
    INDEX 01 00:20:10
  TRACK 17 AUDIO
    TITLE "0:"
    INDEX 01 00:22:58
  TRACK 18 AUDIO
    TITLE "4:cjc115_6252"
    INDEX 01 00:22:68
  TRACK 19 AUDIO
    TITLE "0:"
    INDEX 01 00:27:61
  TRACK 20 AUDIO
    TITLE "2:cjc115_6253"
    INDEX 01 00:28:72
  TRACK 21 AUDIO
    TITLE "0:"
    INDEX 01 00:30:16
  TRACK 22 AUDIO
    TITLE "3:cjc115_6254"
    INDEX 01 00:30:20
  TRACK 23 AUDIO
    TITLE "0:"
    INDEX 01 00:32:25
  TRACK 24 AUDIO
    TITLE "4:cjc115_6255"
    INDEX 01 00:32:33
  TRACK 25 AUDIO
    TITLE "0:"
    INDEX 01 00:36:40
  TRACK 26 AUDIO
    TITLE "2:cjc115_6256"
    INDEX 01 00:37:50
  TRACK 27 AUDIO
    TITLE "0:"
    INDEX 01 00:39:00
  TRACK 28 AUDIO
    TITLE "3:cjc115_6257"
    INDEX 01 00:39:25
  TRACK 29 AUDIO
    TITLE "0:"
    INDEX 01 00:43:27
  TRACK 30 AUDIO
    TITLE "4:cjc115_6258"
    INDEX 01 00:43:35
  TRACK 31 AUDIO
    TITLE "0:"
    INDEX 01 00:47:01
  TRACK 32 AUDIO
    TITLE "2:cjc115_6259"
    INDEX 01 00:48:08
  TRACK 33 AUDIO
    TITLE "0:"
    INDEX 01 00:50:48
  TRACK 34 AUDIO
    TITLE "3:cjc115_6260"
    INDEX 01 00:50:58
  TRACK 35 AUDIO
    TITLE "0:"
    INDEX 01 00:54:07
  TRACK 36 AUDIO
    TITLE "4:cjc115_6261"
    INDEX 01 00:54:15
  TRACK 37 AUDIO
    TITLE "0:"
    INDEX 01 00:58:36
  TRACK 38 AUDIO
    TITLE "2:cjc115_6262"
    INDEX 01 00:59:47
  TRACK 39 AUDIO
    TITLE "0:"
    INDEX 01 01:01:03
  TRACK 40 AUDIO
    TITLE "3:cjc115_6263"
    INDEX 01 01:01:13
  TRACK 41 AUDIO
    TITLE "0:"
    INDEX 01 01:02:61
  TRACK 42 AUDIO
    TITLE "4:cjc115_6264"
    INDEX 01 01:02:69
  TRACK 43 AUDIO
    TITLE "0:"
    INDEX 01 01:07:33
  TRACK 44 AUDIO
    TITLE "2:cjc115_6265"
    INDEX 01 01:08:42
  TRACK 45 AUDIO
    TITLE "0:"
    INDEX 01 01:10:04
  TRACK 46 AUDIO
    TITLE "3:cjc115_6266"
    INDEX 01 01:10:12
  TRACK 47 AUDIO
    TITLE "0:"
    INDEX 01 01:12:54
  TRACK 48 AUDIO
    TITLE "4:cjc115_6267"
    INDEX 01 01:12:64
  TRACK 49 AUDIO
    TITLE "0:"
    INDEX 01 01:18:66
  TRACK 50 AUDIO
    TITLE "2:cjc115_6268"
    INDEX 01 01:20:00
  TRACK 51 AUDIO
    TITLE "0:"
    INDEX 01 01:21:29
  TRACK 52 AUDIO
    TITLE "3:cjc115_6269"
    INDEX 01 01:21:35
  TRACK 53 AUDIO
    TITLE "0:"
    INDEX 01 01:23:03
  TRACK 54 AUDIO
    TITLE "4:cjc115_6270"
    INDEX 01 01:23:15
  TRACK 55 AUDIO
    TITLE "0:"
    INDEX 01 01:27:03
  TRACK 56 AUDIO
    TITLE "2:cjc115_6271"
    INDEX 01 01:28:06
  TRACK 57 AUDIO
    TITLE "0:"
    INDEX 01 01:29:31
  TRACK 58 AUDIO
    TITLE "3:cjc115_6272"
    INDEX 01 01:29:45
  TRACK 59 AUDIO
    TITLE "0:"
    INDEX 01 01:31:67
  TRACK 60 AUDIO
    TITLE "4:cjc115_6273"
    INDEX 01 01:32:00
  TRACK 61 AUDIO
    TITLE "0:"
    INDEX 01 01:36:39
  TRACK 62 AUDIO
    TITLE "2:cjc115_6274"
    INDEX 01 01:37:50
  TRACK 63 AUDIO
    TITLE "0:"
    INDEX 01 01:39:15
  TRACK 64 AUDIO
    TITLE "3:cjc115_6275"
    INDEX 01 01:39:25
  TRACK 65 AUDIO
    TITLE "0:"
    INDEX 01 01:41:67
  TRACK 66 AUDIO
    TITLE "4:cjc115_6276"
    INDEX 01 01:41:73
  TRACK 67 AUDIO
    TITLE "0:"
    INDEX 01 01:46:33
  TRACK 68 AUDIO
    TITLE "2:cjc115_6277"
    INDEX 01 01:47:42
  TRACK 69 AUDIO
    TITLE "0:"
    INDEX 01 01:48:73
  TRACK 70 AUDIO
    TITLE "3:cjc115_6278"
    INDEX 01 01:49:06
  TRACK 71 AUDIO
    TITLE "0:"
    INDEX 01 01:51:64
  TRACK 72 AUDIO
    TITLE "4:cjc115_6279"
    INDEX 01 01:52:06
  TRACK 73 AUDIO
    TITLE "0:"
    INDEX 01 01:56:10
